<?xml version="1.0" encoding="UTF-8"?>
<svg width="59px" height="37px" viewBox="0 0 59 37" version="1.1" xmlns="http://www.w3.org/2000/svg" xmlns:xlink="http://www.w3.org/1999/xlink">
    <!-- Generator: Sketch 58 (84663) - https://sketch.com -->
    <title>amex</title>
    <desc>Created with Sketch.</desc>
    <g id="Page-1" stroke="none" stroke-width="1" fill="none" fill-rule="evenodd">
        <g id="amex">
            <rect id="Rectangle" stroke="#F5F5F5" fill-rule="nonzero" x="0" y="0" width="59" height="37" rx="3.5"></rect>
            <g id="amex-american-express-seeklogo.com" transform="translate(13.224138, 2.055556)">
                <polygon id="Path" fill="#296BB4" points="0 0 32.5517241 0 32.5517241 32.8888889 0 32.8888889 0 0"></polygon>
                <polygon id="Path" fill="#FFFFFF" points="12.2068966 27.7213844 12.2068966 15.4166667 32.5517241 15.4376515 32.5517241 18.8352797 30.1998132 21.5404099 32.5517241 24.2703403 32.5517241 27.7404615 28.7978828 27.7404615 26.8022145 25.3710879 24.8207251 27.75 12.2068966 27.7213844"></polygon>
                <polygon id="Path" fill="#296BB4" points="13.2241379 26.7222222 13.2241379 17.4722222 20.3448276 17.4722222 20.3448276 19.6023136 15.5298533 19.6023136 15.5298533 21.0487174 20.2297087 21.0487174 20.2297087 23.1438892 15.5298533 23.1438892 15.5298533 24.5645628 20.3448276 24.5645628 20.3448276 26.7222222 13.2241379 26.7222222"></polygon>
                <polygon id="Path" fill="#296BB4" points="20.3448276 26.7222222 24.8032611 22.0907897 20.3448276 17.4722222 23.7953003 17.4722222 26.5190596 20.403625 29.2503692 17.4722222 32.5517241 17.4722222 32.5517241 17.545737 28.1895565 22.0907897 32.5517241 26.5898956 32.5517241 26.7222222 29.216393 26.7222222 26.4454445 23.7614136 23.7009219 26.7222222 20.3448276 26.7222222"></polygon>
                <polygon id="Path" fill="#FFFFFF" points="12.3633271 5.13888889 17.4676121 5.13888889 19.2606605 9.35899225 19.2606605 5.13888889 25.5621558 5.13888889 26.6486841 8.30157623 27.7389018 5.13888889 32.5517241 5.13888889 32.5517241 17.4722222 7.12068966 17.4722222 12.3633271 5.13888889"></polygon>
                <path d="M13.1710033,6.16666667 L9.15517241,15.4166667 L11.9085254,15.4166667 L12.6674509,13.5644595 L16.7732019,13.5644595 L17.5231354,15.4166667 L20.3448276,15.4166667 L16.3451823,6.16666667 L13.1710033,6.16666667 Z M13.5162965,11.4878538 L14.7212256,8.54492278 L15.9243563,11.4878538 L13.5162965,11.4878538 Z" id="Shape" fill="#296BB4"></path>
                <polygon id="Path" fill="#296BB4" points="20.3448276 15.3946472 20.3448276 6.16666667 24.4207346 6.18134629 26.5183216 11.8531872 28.6291606 6.16666667 32.5517241 6.16666667 32.5517241 15.3946472 30.028183 15.4166667 30.028183 9.07690273 27.6447335 15.3946472 25.3407953 15.3946472 22.9081244 9.05671824 22.9081244 15.3946472 20.3448276 15.3946472"></polygon>
            </g>
        </g>
    </g>
</svg>