<?xml version="1.0" encoding="UTF-8"?>
<svg width="59px" height="37px" viewBox="0 0 59 37" version="1.1" xmlns="http://www.w3.org/2000/svg" xmlns:xlink="http://www.w3.org/1999/xlink">
    <!-- Generator: Sketch 58 (84663) - https://sketch.com -->
    <title>ikeagiftcard</title>
    <desc>Created with Sketch.</desc>
    <defs>
        <path d="M42.746619,16.4658222 L42.746619,2.8477975 L18.0360966,2.8477975 L18.0360966,13.5379917 C18.2459534,12.4984972 18.7005586,11.5252944 19.3614603,10.7009139 C21.1138621,8.94084444 23.9439293,8.94084444 25.696331,10.7009139 C27.2233121,12.2421694 27.44975,14.6627917 26.235469,16.4658222 L42.746619,16.4658222 Z M42.746619,18.7355667 L19.6310293,18.7355667 L25.5615466,24.7501222 L23.9890948,26.3389639 L18.0360966,20.3470194 L18.0360966,27.8142361 L42.746619,27.8142361 L42.746619,18.7355667 Z M15.7897224,27.8142361 L15.7897224,20.3470194 L9.83672414,26.3389639 L8.26417069,24.7501222 L14.1946879,18.7355667 L2.31122328,18.7355667 L2.31122328,27.8142361 L15.7897224,27.8142361 Z M2.31122328,16.4658222 L7.59024828,16.4658222 C6.37606897,14.6627917 6.60240517,12.2421694 8.12938621,10.7009139 C9.88178793,8.94084444 12.7119569,8.94084444 14.4642569,10.7009139 C15.1251586,11.5252944 15.5798655,12.4984972 15.7897224,13.5379917 L15.7897224,2.8477975 L2.31122328,2.8477975 L2.31122328,16.4658222 Z M42.746619,0.578125 C43.9872466,0.578125 44.9929931,1.59428889 44.9929931,2.8477975 L44.9929931,27.8142361 C44.9929931,29.0677139 43.9872466,30.0838778 42.746619,30.0838778 L2.31122328,30.0838778 C1.07057534,30.0838778 0.0648186207,29.0677139 0.0648186207,27.8142361 L0.0648186207,2.8477975 C0.0648186207,1.59428889 1.07057534,0.578125 2.31122328,0.578125 L42.746619,0.578125 Z M20.9339121,12.3123667 C20.2187914,13.5658444 19.7746638,14.9582778 19.6310293,16.3977833 C21.1748966,16.4411556 22.7092017,16.1388861 24.1238793,15.5125583 C24.9985034,14.6226056 24.993519,13.1847444 24.1125879,12.3009583 C23.2317586,11.417275 21.8086379,11.4223111 20.9339121,12.3123667 Z M9.70193966,12.3123667 C9.2625931,12.7401278 9.01448793,13.3300722 9.01448793,13.9465333 C9.01448793,14.5629944 9.2625931,15.1529389 9.70193966,15.5807 C11.082031,16.1907889 12.5762569,16.4926472 14.0823845,16.4658222 C13.9827966,15.0115167 13.5769172,13.5954444 12.8918052,12.3123667 C12.4700569,11.8826528 11.8958241,11.6410222 11.2968724,11.6410222 C10.6979207,11.6410222 10.1236879,11.8826528 9.70193966,12.3123667 Z" id="path-1"></path>
    </defs>
    <g id="Page-1" stroke="none" stroke-width="1" fill="none" fill-rule="evenodd">
        <g id="ikeagiftcard">
            <rect id="Rectangle" stroke="#F5F5F5" fill-rule="nonzero" x="0.746540224" y="0.513888889" width="57.4200207" height="35.9722222" rx="3.5"></rect>
            <path d="M52.8965517,2.13556806 L6.10344828,2.13556806 C3.85621966,2.13556806 2.03448276,3.97617417 2.03448276,6.24667917 L2.03448276,30.9133972 C2.03448276,33.1838611 3.85621966,35.0245083 6.10344828,35.0245083 L52.8965517,35.0245083 C55.1437397,35.0245083 56.9655172,33.1838611 56.9655172,30.9133972 L56.9655172,6.24667917 C56.9655172,3.97617417 55.1437397,2.13556806 52.8965517,2.13556806 Z" id="Path" fill-rule="nonzero"></path>
            <g id="Clipped" transform="translate(7.120690, 3.083333)">
                <mask id="mask-2" fill="white">
                    <use xlink:href="#path-1"></use>
                </mask>
                <g id="Shape"></g>
                <g id="Group" mask="url(#mask-2)" fill-rule="nonzero">
                    <g transform="translate(-5.086207, -13.361111)">
                        <path d="M47.8328259,29.8269333 L47.8328259,16.2089086 L23.1223034,16.2089086 L23.1223034,26.8991028 C23.3321603,25.8596083 23.7867655,24.8864056 24.4476672,24.062025 C26.200069,22.3019556 29.0301362,22.3019556 30.7825379,24.062025 C32.309519,25.6032806 32.5359569,28.0239028 31.3216759,29.8269333 L47.8328259,29.8269333 Z M47.8328259,32.0966778 L24.7172362,32.0966778 L30.6477534,38.1112333 L29.0753017,39.700075 L23.1223034,33.7081306 L23.1223034,41.1753472 L47.8328259,41.1753472 L47.8328259,32.0966778 Z M20.8759293,41.1753472 L20.8759293,33.7081306 L14.922931,39.700075 L13.3503776,38.1112333 L19.2808948,32.0966778 L7.39743017,32.0966778 L7.39743017,41.1753472 L20.8759293,41.1753472 Z M7.39743017,29.8269333 L12.6764552,29.8269333 C11.4622759,28.0239028 11.6886121,25.6032806 13.2155931,24.062025 C14.9679948,22.3019556 17.7981638,22.3019556 19.5504638,24.062025 C20.2113655,24.8864056 20.6660724,25.8596083 20.8759293,26.8991028 L20.8759293,16.2089086 L7.39743017,16.2089086 L7.39743017,29.8269333 Z M47.8328259,13.9392361 C49.0734534,13.9392361 50.0792,14.9554 50.0792,16.2089086 L50.0792,41.1753472 C50.0792,42.428825 49.0734534,43.4449889 47.8328259,43.4449889 L7.39743017,43.4449889 C6.15678224,43.4449889 5.15102552,42.428825 5.15102552,41.1753472 L5.15102552,16.2089086 C5.15102552,14.9554 6.15678224,13.9392361 7.39743017,13.9392361 L47.8328259,13.9392361 Z M26.020119,25.6734778 C25.3049983,26.9269556 24.8608707,28.3193889 24.7172362,29.7588944 C26.2611034,29.8022667 27.7954086,29.4999972 29.2100862,28.8736694 C30.0847103,27.9837167 30.0797259,26.5458556 29.1987948,25.6620694 C28.3179655,24.7783861 26.8948448,24.7834222 26.020119,25.6734778 Z M14.7881466,25.6734778 C14.3488,26.1012389 14.1006948,26.6911833 14.1006948,27.3076444 C14.1006948,27.9241056 14.3488,28.51405 14.7881466,28.9418111 C16.1682379,29.5519 17.6624638,29.8537583 19.1685914,29.8269333 C19.0690034,28.3726278 18.6631241,26.9565556 17.9780121,25.6734778 C17.5562638,25.2437639 16.982031,25.0021333 16.3830793,25.0021333 C15.7841276,25.0021333 15.2098948,25.2437639 14.7881466,25.6734778 Z" id="Shape" fill="#000000"></path>
                        <polygon id="Path" fill="#111111" points="54.5719483 0.321180556 0.658124655 0.321180556 0.658124655 54.7934028 54.5719483 54.7934028"></polygon>
                    </g>
                </g>
            </g>
        </g>
    </g>
</svg>