<?xml version="1.0" encoding="UTF-8"?>
<svg width="59px" height="37px" viewBox="0 0 59 37" version="1.1" xmlns="http://www.w3.org/2000/svg" xmlns:xlink="http://www.w3.org/1999/xlink">
    <!-- Generator: Sketch 58 (84663) - https://sketch.com -->
    <title>maestro</title>
    <desc>Created with Sketch.</desc>
    <g id="Page-1" stroke="none" stroke-width="1" fill="none" fill-rule="evenodd">
        <g id="maestro">
            <g id="Mask" fill-rule="nonzero" stroke="#F5F5F5">
                <rect id="path-1" x="-0.5" y="-0.5" width="60" height="38" rx="4"></rect>
            </g>
            <g id="Utilities-/-Payment/Logos-/-Maestro" transform="translate(6.103448, 1.947368)">
                <g id="ms_vrt_pos" transform="translate(0.059838, 0.000000)">
                    <rect id="Rectangle" x="0" y="0" width="45.3878312" height="33.2247663"></rect>
                    <path d="M15.5817742,28.9835411 L15.5817742,27.3311157 C15.6036552,27.050712 15.4889745,26.7754851 15.267001,26.5756799 C15.0450276,26.3758746 14.7372374,26.2708218 14.4221859,26.2873337 C14.0059197,26.2630287 13.607793,26.4424314 13.3831948,26.7555209 C13.1784257,26.4517664 12.8034868,26.2721192 12.4060484,26.2873337 C12.0600017,26.2717532 11.7305686,26.4205508 11.5402225,26.6784077 L11.5402225,26.3534307 L10.8970376,26.3534307 L10.8970376,28.9835411 L11.546407,28.9835411 L11.546407,27.5266527 C11.517271,27.3441524 11.5817166,27.1596474 11.7219524,27.0240738 C11.8621881,26.8885004 12.0633818,26.8161975 12.26999,26.827126 C12.6967185,26.827126 12.913175,27.0749899 12.913175,27.5211447 L12.913175,28.9835411 L13.5625444,28.9835411 L13.5625444,27.5266527 C13.5357254,27.3445673 13.6009721,27.1612666 13.7406824,27.0262011 C13.8803928,26.8911355 14.0801732,26.8182202 14.2861276,26.827126 C14.725225,26.827126 14.9354969,27.0749899 14.9354969,27.5211447 L14.9354969,28.9835411 L15.5817742,28.9835411 Z M19.1996896,27.6698629 L19.1996896,26.3561848 L18.5503201,26.3561848 L18.5503201,26.6756536 C18.3290598,26.421351 17.9836104,26.2777726 17.6226495,26.2900877 C16.7687522,26.2900877 16.0765318,26.9066011 16.0765318,27.6671089 C16.0765318,28.4276167 16.7687522,29.04413 17.6226495,29.04413 C17.9836104,29.0564453 18.3290598,28.9128667 18.5503201,28.6585641 L18.5503201,28.9780331 L19.1935051,28.9780331 L19.1996896,27.6698629 Z M16.8093916,27.6698629 C16.8379932,27.2376625 17.2492442,26.9050952 17.7350184,26.9213342 C18.2207927,26.9375732 18.602895,27.2966614 18.5950387,27.7295554 C18.5871826,28.1624494 18.1922497,28.5103518 17.7061399,28.5125999 C17.4572629,28.5177984 17.2174515,28.4293344 17.0455887,28.2689291 C16.873726,28.108524 16.7857299,27.8910345 16.8032071,27.6698629 L16.8093916,27.6698629 Z M32.9415836,26.2928418 C33.1533322,26.2923545 33.3632384,26.3278747 33.5600308,26.3974954 C33.747872,26.4644926 33.9191208,26.563677 34.0640651,26.6894239 C34.2071359,26.8140355 34.3206953,26.9629354 34.3980265,27.1273166 C34.5595828,27.4804269 34.5595828,27.8758232 34.3980265,28.2289335 C34.3207695,28.3933505 34.2072006,28.5422629 34.0640651,28.6668263 C33.9191208,28.7925731 33.747872,28.8917576 33.5600308,28.9587548 C33.152276,29.0998688 32.699969,29.0998688 32.2922143,28.9587548 C32.1052492,28.8918241 31.9349997,28.7926097 31.7912721,28.6668263 C31.6495685,28.5417748 31.5371104,28.3929409 31.4604029,28.2289335 C31.2991751,27.875766 31.2991751,27.4804842 31.4604029,27.1273166 C31.5371104,26.9633093 31.6495685,26.8144754 31.7912721,26.6894239 C31.9349997,26.5636404 32.1052492,26.464426 32.2922143,26.3974954 C32.4960782,26.322235 32.7147173,26.2838514 32.9353992,26.2845596 L32.9415836,26.2928418 Z M32.9415836,26.8436503 C32.8156469,26.8421204 32.6906061,26.8627089 32.5736076,26.9042392 C32.4634057,26.9435917 32.3634281,27.0026414 32.2798453,27.0777438 C32.1945776,27.1568064 32.1282922,27.2505139 32.0850344,27.3531481 C31.9905685,27.5730426 31.9905685,27.816256 32.0850344,28.0361505 C32.1282141,28.1388192 32.1945088,28.2325402 32.2798453,28.3115548 C32.363372,28.386718 32.4633646,28.4457766 32.5736076,28.4850594 C32.8091859,28.5672165 33.0708891,28.5672165 33.3064674,28.4850594 C33.4219817,28.4470309 33.5273048,28.3879343 33.615691,28.3115548 C33.7011663,28.2326371 33.7674803,28.138889 33.8105019,28.0361505 C33.9049678,27.816256 33.9049678,27.5730426 33.8105019,27.3531481 C33.7674803,27.2504097 33.7011663,27.1566616 33.615691,27.0777438 C33.5273048,27.0013643 33.4219817,26.9422677 33.3064674,26.9042392 C33.189818,26.8566788 33.0636362,26.8304565 32.9353992,26.827126 L32.9415836,26.8436503 Z M22.6939155,27.6698629 C22.6939155,26.8436503 22.1187597,26.2928418 21.293133,26.2928418 C20.4392357,26.303489 19.7567064,26.9286335 19.768661,27.6891413 C19.7806156,28.449649 20.4825271,29.0575312 21.3364242,29.0468841 C21.7766548,29.0602803 22.2070255,28.9289186 22.5454882,28.6778424 L22.2362647,28.2537199 C21.9920901,28.4281276 21.689589,28.5250401 21.3766232,28.5291242 C20.9345469,28.5629851 20.5425177,28.277314 20.492244,27.8846782 L22.6846389,27.8846782 C22.6939155,27.8158272 22.6939155,27.7469761 22.6939155,27.6698629 Z M20.4953362,27.4385234 C20.5201564,27.0751963 20.8628902,26.7942694 21.2714873,26.8023396 C21.4658661,26.7986487 21.6539257,26.8639007 21.7942727,26.9837329 C21.9346196,27.1035652 22.0157506,27.2681559 22.0198083,27.4412775 L20.4953362,27.4385234 Z M25.3996216,27.0254171 C25.117229,26.8805972 24.7977916,26.8028336 24.4719509,26.7995856 C24.1194361,26.7995856 23.9091641,26.9152554 23.9091641,27.1080383 C23.9091641,27.3008213 24.131805,27.3338698 24.4101062,27.3669183 L24.7193298,27.4054749 C25.3625147,27.4880962 25.7521364,27.7304519 25.7521364,28.193131 C25.7521364,28.6558101 25.2573787,29.0523922 24.407014,29.0523922 C23.9512553,29.0631897 23.5036271,28.9434917 23.1299208,28.710891 L23.4391443,28.2647361 C23.7229198,28.4522395 24.0692808,28.5492457 24.4224752,28.5401403 C24.8615726,28.5401403 25.0965825,28.4244705 25.0965825,28.2206714 C25.0965825,28.0719531 24.9296017,27.9893318 24.5770869,27.9452672 L24.2678634,27.9067106 C23.606125,27.8240893 23.2474257,27.5597012 23.2474257,27.1300707 C23.2474257,26.6068026 23.7298144,26.2873337 24.4843199,26.2873337 C24.9066082,26.2747325 25.3240883,26.3703164 25.6871995,26.562738 L25.3996216,27.0254171 Z M28.4918569,26.8766987 L27.4435892,26.8766987 L27.4435892,28.063691 C27.4435892,28.3390952 27.5487251,28.5043378 27.8703176,28.5043378 C28.0710441,28.4984173 28.266805,28.4472492 28.4392889,28.3556195 L28.6248231,28.845839 C28.3837239,28.9798446 28.1050363,29.0504884 27.8208419,29.0496532 C27.0601519,29.0496532 26.7942197,28.6861045 26.7942197,28.0747072 L26.7942197,26.8766987 L26.194326,26.8766987 L26.194326,26.3534307 L26.7942197,26.3534307 L26.7942197,25.5547585 L27.4435892,25.5547585 L27.4435892,26.3534307 L28.4918569,26.3534307 L28.4918569,26.8766987 Z M30.7151742,26.2873337 C30.8711844,26.2878706 31.0259507,26.3120857 31.172825,26.3589388 L30.974922,26.9097473 C30.8471161,26.864364 30.7105069,26.8419022 30.5729314,26.8436503 C30.1523873,26.8436503 29.9544842,27.086006 29.9544842,27.5211447 L29.9544842,28.9945573 L29.3112993,28.9945573 L29.3112993,26.3644469 L29.9482998,26.3644469 L29.9482998,26.6839158 C30.1090908,26.4379256 30.4080897,26.2899824 30.7275431,26.2983499 L30.7151742,26.2873337 Z M35.1618087,28.6007293 C35.2020118,28.6002906 35.241925,28.6068388 35.2793137,28.6200076 C35.3148257,28.6329141 35.3473318,28.6515922 35.3751729,28.6750884 C35.4023441,28.6988341 35.4243589,28.7268441 35.4401098,28.7577097 C35.4717623,28.8227181 35.4717623,28.8965004 35.4401098,28.9615088 C35.4243589,28.9923744 35.4023441,29.0203843 35.3751729,29.04413 C35.3473318,29.0676263 35.3148257,29.0863044 35.2793137,29.0992109 C35.2422941,29.1137592 35.2022719,29.1212634 35.1618087,29.1212433 C35.0421545,29.12044 34.9337602,29.0582258 34.8835075,28.9615088 C34.8522215,28.8964331 34.8522215,28.8227854 34.8835075,28.7577097 C34.8992586,28.7268441 34.9212732,28.6988341 34.9484444,28.6750884 C34.9762855,28.6515922 35.0087917,28.6329141 35.0443038,28.6200076 C35.0768471,28.6084811 35.1113526,28.6019623 35.1463475,28.6007293 L35.1618087,28.6007293 Z M35.1618087,29.066166 C35.1926721,29.0663294 35.2232283,29.0606989 35.2514835,29.0496382 C35.278088,29.0390592 35.302216,29.0241101 35.3226049,29.0055735 C35.3758506,28.9578126 35.3991864,28.8897181 35.384961,28.8236161 C35.3707357,28.7575142 35.320784,28.7019302 35.2514835,28.6750884 C35.2232004,28.6641057 35.192663,28.6584786 35.1618087,28.6585631 C35.1309811,28.6587092 35.1004952,28.6643268 35.0721338,28.6750884 C35.0443516,28.6852343 35.0191212,28.7002149 34.9979202,28.719153 C34.9177395,28.7970669 34.9177395,28.9166434 34.9979202,28.9945573 C35.0411756,29.0335645 35.1002526,29.0554051 35.1618087,29.0551463 L35.1618087,29.066166 Z M35.1803621,28.7384314 C35.2092285,28.7371846 35.2376738,28.7449797 35.2607602,28.7604637 C35.2799637,28.7746184 35.2903255,28.7961516 35.2885903,28.8182986 C35.289488,28.8367935 35.281636,28.8547759 35.2669447,28.8678714 C35.2490215,28.8823702 35.226157,28.8910976 35.2020077,28.8926577 L35.2916826,28.9835411 L35.2205612,28.9835411 L35.1370708,28.8926577 L35.1092407,28.8926577 L35.1092407,28.9835411 L35.0504882,28.9835411 L35.0504882,28.7301693 L35.1803621,28.7384314 Z M35.1123329,28.7852501 L35.1123329,28.8513471 L35.1803621,28.8513471 C35.1924677,28.8545615 35.2053633,28.8545615 35.217469,28.8513471 C35.2218793,28.8435519 35.2218793,28.8343559 35.217469,28.8265607 C35.2218793,28.8187654 35.2218793,28.8095696 35.217469,28.8017743 C35.2053633,28.7985598 35.1924677,28.7985598 35.1803621,28.8017743 L35.1123329,28.7852501 Z" id="Shape" fill="#000000" fill-rule="nonzero"></path>
                    <g id="_Group_" transform="translate(4.638353, 4.131063)" fill-rule="nonzero">
                        <rect id="Rectangle" fill="#7673C0" x="13.1852917" y="2.15641512" width="9.74054149" height="15.5906334"></rect>
                        <path d="M13.8037388,9.9531089 C13.8000969,6.91030309 15.3680524,4.03509726 18.0555625,2.15641512 C13.4913582,-1.03825968 6.93697782,-0.572927674 2.9986637,3.22538832 C-0.939650411,7.02370432 -0.939650411,12.8797593 2.9986637,16.6780754 C6.93697782,20.4763914 13.4913582,20.9417233 18.0555625,17.7470486 C15.3689074,15.8689628 13.8010478,12.9949481 13.8037388,9.9531089 L13.8037388,9.9531089 Z" id="_Path_" fill="#EB001B"></path>
                        <path d="M35.1672277,17.1147663 L35.1672277,15.9901991 L35.4190459,15.9901991 L35.4190459,15.7492203 L34.7814637,15.7492203 L34.7814637,15.9901991 L35.0332819,15.9901991 L35.0332819,17.1549295 L35.1672277,17.1147663 Z M36.4048873,17.1147663 L36.4048873,15.7090572 L36.2120053,15.7090572 L35.9869762,16.7131352 L35.7619473,15.7090572 L35.5637074,15.7090572 L35.5637074,17.1147663 L35.7030111,17.1147663 L35.7030111,16.0604846 L35.9119666,16.9741954 L36.0566281,16.9741954 L36.2655836,16.0604846 L36.2655836,17.1248071 L36.4048873,17.1147663 Z" id="Shape" fill="#00A1DF"></path>
                        <path d="M36.0647414,9.9531089 C36.063712,13.7480877 33.630491,17.2096016 29.7979991,18.868212 C25.9655071,20.5268223 21.4062096,20.0915023 18.0555625,17.7470486 C20.7410453,15.8673684 22.3090229,12.9937359 22.3090229,9.95173187 C22.3090229,6.90972784 20.7410453,4.0360953 18.0555625,2.15641512 C21.4061819,-0.189724549 25.9667653,-0.626031661 29.8004153,1.03279509 C33.6340653,2.69162183 36.0678336,6.15435356 36.0678336,9.95035484 L36.0647414,9.9531089 Z" id="Path" fill="#00A1DF"></path>
                    </g>
                </g>
            </g>
        </g>
    </g>
</svg>