<?xml version="1.0" encoding="UTF-8"?>
<svg width="59px" height="37px" viewBox="0 0 59 37" version="1.1" xmlns="http://www.w3.org/2000/svg" xmlns:xlink="http://www.w3.org/1999/xlink">
    <!-- Generator: Sketch 58 (84663) - https://sketch.com -->
    <title>mastercard</title>
    <desc>Created with Sketch.</desc>
    <g id="Page-1" stroke="none" stroke-width="1" fill="none" fill-rule="evenodd">
        <g id="mastercard" fill-rule="nonzero">
            <rect id="Rectangle" stroke="#F5F5F5" x="0" y="0" width="59" height="37" rx="3.5"></rect>
            <path d="M52,2.07785 L6,2.07785 C3.79086,2.07785 2,3.86871 2,6.07785 L2,30.0779 C2,32.287 3.79086,34.0779 6,34.0779 L52,34.0779 C54.2091,34.0779 56,32.287 56,30.0779 L56,6.07785 C56,3.86871 54.2091,2.07785 52,2.07785 Z" id="Path"></path>
            <polygon id="Path" fill="#FF5F00" points="35.3057 8.22069 23.4897 8.22069 23.4897 27.7414 35.3057 27.7414"></polygon>
            <path d="M24.7069,17.9828 C24.7039,14.1741 26.4324,10.5756 29.3944,8.22414 C24.3625,4.22416 17.1365,4.80679 12.7946,9.56258 C8.45274,14.3184 8.45274,21.6506 12.7946,26.4064 C17.1365,31.1622 24.3625,31.7448 29.3944,27.7448 C26.4315,25.3926 24.7028,21.7926 24.7069,17.9828 Z" id="Path" fill="#EB001B"></path>
            <path d="M48.1894,26.6931 L48.1894,25.4502 L48.4394,25.4502 L48.4394,25.1931 L47.8444,25.1931 L47.8444,25.4502 L48.0794,25.4502 L48.0794,26.6931 L48.1894,26.6931 Z M49.3444,26.6931 L49.3444,25.1931 L49.1644,25.1931 L48.9544,26.2645 L48.7444,25.1931 L48.5644,25.1931 L48.5644,26.6931 L48.6944,26.6931 L48.6944,25.5574 L48.8894,26.5324 L49.0244,26.5324 L49.2194,25.5574 L49.2194,26.6931 L49.3444,26.6931 Z" id="Shape" fill="#F79E1B"></path>
            <path d="M49.2522,17.9828 C49.2522,22.7356 46.5691,27.0713 42.3426,29.1482 C38.1161,31.2252 33.0882,30.6789 29.3943,27.7414 C32.3549,25.3879 34.0836,21.7899 34.0836,17.981 C34.0836,14.1722 32.3549,10.5742 29.3943,8.22069 C33.0882,5.28314 38.1161,4.73685 42.3426,6.81383 C46.5691,8.89081 49.2522,13.2264 49.2522,17.9793 L49.2522,17.9828 Z" id="Path" fill="#F79E1B"></path>
        </g>
    </g>
</svg>