<?xml version="1.0" encoding="UTF-8"?>
<svg width="61px" height="39px" viewBox="0 0 61 39" version="1.1" xmlns="http://www.w3.org/2000/svg" xmlns:xlink="http://www.w3.org/1999/xlink">
    <!-- Generator: Sketch 58 (84663) - https://sketch.com -->
    <title>PayPal_CREDIT</title>
    <desc>Created with Sketch.</desc>
    <defs>
        <polygon id="path-1" points="0.00697674419 0.00852631579 14.971492 0.00852631579 14.971492 18 0.00697674419 18"></polygon>
    </defs>
    <g id="Page-1" stroke="none" stroke-width="1" fill="none" fill-rule="evenodd">
        <g id="PayPal_CREDIT" transform="translate(1.000000, 1.000000)">
            <rect id="Rectangle" stroke="#F5F5F5" x="0" y="0" width="59" height="37" rx="3.5"></rect>
            <g id="Group-5" transform="translate(3.000000, 10.000000)">
                <mask id="mask-2" fill="white">
                    <use xlink:href="#path-1"></use>
                </mask>
                <g id="Clip-2"></g>
                <path d="M13.4918605,4.57946053 C13.7074419,3.17996053 13.4903488,2.22761842 12.747093,1.36503947 C11.9287209,0.415421053 10.4503488,0.00852631579 8.55883721,0.00852631579 L3.06813953,0.00852631579 C2.68151163,0.00852631579 2.35244186,0.294986842 2.2922093,0.683881579 L0.00581395349,15.4489737 C-0.0393023256,15.7402895 0.181860465,16.0037763 0.471395349,16.0037763 L3.86104651,16.0037763 L3.62709302,17.5147105 C3.58767442,17.7695526 3.78104651,18 4.0344186,18 L6.89151163,18 C7.22965116,18 7.51755814,17.7494211 7.57023256,17.4091974 L7.59837209,17.2612895 L8.13651163,13.7853947 L8.17127907,13.5933158 C8.22395349,13.2530921 8.51186047,13.0025132 8.85011628,13.0025132 L9.27744186,13.0025132 C12.0453488,13.0025132 14.2126744,11.8572632 14.8459302,8.54526316 C15.1105814,7.16127632 14.9737209,6.00607895 14.2739535,5.19394737 C14.0623256,4.94834211 13.7989535,4.74513158 13.4918605,4.57946053" id="Fill-1" fill="#0093C7" mask="url(#mask-2)"></path>
                <path d="M13.4918605,4.57946053 C13.7074419,3.17996053 13.4903488,2.22761842 12.747093,1.36503947 C11.9287209,0.415421053 10.4503488,0.00852631579 8.55883721,0.00852631579 L3.06813953,0.00852631579 C2.68151163,0.00852631579 2.35244186,0.294986842 2.2922093,0.683881579 L0.00581395349,15.4489737 C-0.0393023256,15.7402895 0.181860465,16.0037763 0.471395349,16.0037763 L3.86104651,16.0037763 L4.71255814,10.5050132 L4.68616279,10.6774342 C4.74639535,10.2885395 5.0727907,10.0020789 5.45930233,10.0020789 L7.07034884,10.0020789 C10.2344186,10.0020789 12.7118605,8.69305263 13.4356977,4.90701316 C13.4572093,4.79486842 13.4754651,4.68627632 13.4918605,4.57946053" id="Fill-3" fill="#1C1E58" mask="url(#mask-2)"></path>
                <path d="M5.6272093,4.59805263 C5.66348837,4.36417105 5.81093023,4.17256579 6.00930233,4.07569737 C6.09953488,4.03176316 6.20034884,4.00725 6.30604651,4.00725 L10.61,4.00725 C11.1198837,4.00725 11.5952326,4.04123684 12.0298837,4.11252632 C12.1540698,4.13289474 12.275,4.15634211 12.3924419,4.18286842 C12.5097674,4.20939474 12.6237209,4.239 12.7340698,4.27192105 C12.7893023,4.28826316 12.8436047,4.30555263 12.8968605,4.32355263 C13.1103488,4.39567105 13.3090698,4.48081579 13.4918605,4.57946053 C13.7074419,3.17996053 13.4903488,2.22761842 12.747093,1.36503947 C11.9287209,0.415421053 10.4503488,0.00852631579 8.55883721,0.00852631579 L3.06813953,0.00852631579 C2.68151163,0.00852631579 2.35244186,0.294986842 2.2922093,0.683881579 L0.00581395349,15.4489737 C-0.0391860465,15.7402895 0.181860465,16.0037763 0.471395349,16.0037763 L3.86104651,16.0037763 L5.6272093,4.59805263" id="Fill-4" fill="#21316F" mask="url(#mask-2)"></path>
            </g>
            <path d="M42.4265077,25.2386865 L42.9134419,25.2386865 C44.2083061,25.2386865 45.4256417,24.5596716 45.6912422,23 C45.9235808,21.5676437 45.0715077,20.7613135 43.6771051,20.7613135 L43.3196326,20.7613135 C43.2322119,20.7613135 43.1578982,20.8221261 43.1441731,20.9048692 L42.4265077,25.2386865 Z M41.2461435,19.2463326 C41.2695134,19.1044365 41.3969967,19 41.5468606,19 L44.3632397,19 C46.687244,19 48.3139852,20.7506446 47.9487227,23 C47.572579,25.2493554 45.3592416,27 43.0463658,27 L40.177559,27 C40.0684996,27 39.9851594,26.906588 40.0022231,26.8032184 L41.2461435,19.2463326 L41.2461435,19.2463326 Z" id="Fill-6" fill="#21316F"></path>
            <path d="M37.1249472,21.0074089 L36.94455,22.0981241 L39.1811051,22.0981241 C39.2899612,22.0981241 39.3732405,22.1914175 39.3563128,22.2946685 L39.1411953,23.6126308 C39.1180896,23.754764 38.990576,23.8594375 38.840698,23.8594375 L36.9160077,23.8594375 C36.7667475,23.8594375 36.6394809,23.9632813 36.6157575,24.1047032 L36.4248576,25.2386865 L38.7939924,25.2386865 C38.9029721,25.2386865 38.9861278,25.33198 38.9693237,25.4353496 L38.7542061,26.7533118 C38.7309769,26.8953264 38.6034632,27 38.4537088,27 L34.1774292,27 C34.0684495,27 33.9851703,26.906588 34.0022215,26.8032184 L35.2452327,19.2463326 C35.2685854,19.1044365 35.3959756,19 35.54573,19 L39.8225038,19 C39.9314835,19 40.0146392,19.0932934 39.9978351,19.1965445 L39.782594,20.5146253 C39.7594883,20.6566399 39.6318511,20.7613135 39.4820967,20.7613135 L37.4254445,20.7613135 C37.2758137,20.7613135 37.1484236,20.8656314 37.1249472,21.0074089" id="Fill-7" fill="#21316F"></path>
            <path d="M49.6453115,27 L48.1555848,27 C48.0599659,27 47.9870876,26.906588 48.0019232,26.8032184 L49.0914151,19.2463326 C49.1117734,19.1044365 49.2235272,19 49.3546648,19 L50.8444998,19 C50.9400103,19 51.0129969,19.093412 50.998053,19.1967816 L49.9086694,26.7536674 C49.8882029,26.8955635 49.7765573,27 49.6453115,27" id="Fill-8" fill="#21316F"></path>
            <g id="Group-12" transform="translate(28.000000, 19.000000)" fill="#21316F">
                <path d="M2.81732661,3.568 L3.01611694,3.568 C3.68592339,3.568 4.45641129,3.44105882 4.59638306,2.57823529 C4.73647177,1.71505882 4.28954435,1.59105882 3.57389919,1.58847059 L3.28331452,1.58847059 C3.19572984,1.58847059 3.121125,1.65247059 3.10732661,1.73952941 L2.81732661,3.568 Z M6.3384879,7.94847059 L4.230375,7.94847059 C4.14068548,7.94847059 4.05894758,7.89670588 4.02024194,7.81541176 L2.62894355,4.89482353 L2.6080121,4.89482353 L2.15769355,7.75070588 C2.13980242,7.86458824 2.04216129,7.94847059 1.92756452,7.94847059 L0.271758065,7.94847059 C0.168620968,7.94847059 0.0898064516,7.85576471 0.105943548,7.75317647 L1.28956452,0.206823529 C1.30745565,0.0928235294 1.40521371,0.00894117647 1.51981048,0.00894117647 L4.38706855,0.00894117647 C5.94640323,0.00894117647 7.01402419,0.756470588 6.75232258,2.45188235 C6.57446371,3.54694118 5.82093145,4.49458824 4.66970161,4.69470588 L6.48196774,7.69176471 C6.55002419,7.80423529 6.46945565,7.94847059 6.3384879,7.94847059 L6.3384879,7.94847059 Z" id="Fill-9"></path>
                <path d="M25.784625,7.94847059 L24.1759435,7.94847059 C24.0726895,7.94847059 23.9939919,7.85564706 24.010129,7.75317647 L24.952629,1.75694118 L23.4535161,1.75694118 C23.350379,1.75694118 23.2715645,1.66435294 23.2875847,1.56176471 L23.4912863,0.253764706 C23.5131532,0.112823529 23.6338306,0.00894117647 23.7756734,0.00894117647 L28.7751331,0.00894117647 C28.8782702,0.00894117647 28.9570847,0.101529412 28.9410645,0.204 L28.7374798,1.51211765 C28.715496,1.65305882 28.5948185,1.75694118 28.4530927,1.75694118 L27.0039113,1.75694118 L26.0690121,7.70411765 C26.0469113,7.84482353 25.9262339,7.94847059 25.784625,7.94847059" id="Fill-11"></path>
            </g>
            <path d="M27.7018792,21.3603483 C27.6775241,21.5012861 27.4937213,21.5519427 27.3875427,21.449729 C27.0268957,21.103013 26.4976827,20.9198613 25.928038,20.9198613 C24.6405784,20.9198613 23.6215045,21.8458633 23.4176658,23.0235722 C23.2243849,24.2215437 23.9539573,25.0872081 25.2627725,25.0872081 C25.8024234,25.0872081 26.3749476,24.8946006 26.8506513,24.57265 C26.9819048,24.4838321 27.1622283,24.5902109 27.1363136,24.7401543 L26.8368541,26.4784625 C26.8189777,26.5819145 26.7390739,26.6665672 26.6319356,26.6960606 C25.9910252,26.8726832 25.4988848,27 24.8981663,27 C21.4080723,27 20.8499452,24.2025193 21.0296688,23.0134409 C21.5340468,19.6790006 24.4176635,18.9150996 26.1853859,19.007182 C26.7550307,19.036788 27.2652875,19.1078197 27.7651064,19.2841046 C27.9265937,19.3410651 28.0228142,19.4973124 27.9953398,19.6570495 L27.7018792,21.3603483" id="Fill-13" fill="#21316F"></path>
            <path d="M38.7448464,12.6855796 C38.6544261,13.3317382 38.2005815,13.3317382 37.7615527,13.3317382 L37.5118619,13.3317382 L37.6870377,12.1254175 C37.6976049,12.0524508 37.7554521,11.9987918 37.8233218,11.9987918 L37.9378179,11.9987918 C38.2366407,11.9987918 38.5189046,11.9987918 38.6643397,12.1838146 C38.7514918,12.2946862 38.7778553,12.458743 38.7448464,12.6855796 Z M38.5538744,11 L36.8983111,11 C36.7851223,11 36.6888192,11.0894317 36.6711709,11.2110824 L36.0017337,15.8265855 C35.988443,15.917557 36.0532624,16 36.1380178,16 L36.9874241,16 C37.0666236,16 37.1340575,15.9372202 37.1464767,15.8521712 L37.3362504,14.5436261 C37.3538987,14.4220938 37.4503108,14.3325436 37.5634996,14.3325436 L38.0872837,14.3325436 C39.1777745,14.3325436 39.8071217,13.7587596 39.9716213,12.6214968 C40.0457006,12.1241146 39.9745627,11.7333397 39.7603864,11.4597143 C39.5249668,11.1589633 39.107726,11 38.5538744,11 L38.5538744,11 Z" id="Fill-14" fill="#0093C7"></path>
            <path d="M24.7449357,12.6855796 C24.6544063,13.3317382 24.200561,13.3317382 23.7616405,13.3317382 L23.5118404,13.3317382 L23.6870164,12.1254175 C23.6975836,12.0524508 23.7554309,11.9987918 23.8233007,11.9987918 L23.937797,11.9987918 C24.2366203,11.9987918 24.5188846,11.9987918 24.6644288,12.1838146 C24.7514721,12.2946862 24.7778357,12.458743 24.7449357,12.6855796 Z M24.5538544,11 L22.8982886,11 C22.7850996,11 22.6887964,11.0894317 22.6711481,11.2110824 L22.0017099,15.8265855 C21.9885281,15.917557 22.0532386,16 22.1379942,16 L22.9284651,16 C23.041654,16 23.1380662,15.9104499 23.1557145,15.7887991 L23.3363376,14.5436261 C23.3539859,14.4220938 23.4502891,14.3325436 23.5634781,14.3325436 L24.087372,14.3325436 C25.1777556,14.3325436 25.8071037,13.7587596 25.9716036,12.6214968 C26.045683,12.1241146 25.9746539,11.7333397 25.7604773,11.4597143 C25.5249483,11.1589633 25.1077069,11 24.5538544,11 L24.5538544,11 Z" id="Fill-15" fill="#21316F"></path>
            <path d="M29.7209891,14.5091987 C29.642289,14.9317296 29.272219,15.2155175 28.8002426,15.2155175 C28.5636938,15.2155175 28.3742305,15.1465018 28.2524808,15.0157886 C28.1318521,14.8862951 28.0863361,14.7018126 28.1246772,14.49629 C28.1981082,14.0775199 28.5741199,13.7846858 29.0389214,13.7846858 C29.2705374,13.7846858 29.4586554,13.8543114 29.5827594,13.9861426 C29.7077603,14.1189903 29.7568638,14.3046925 29.7209891,14.5091987 Z M30.8579928,13.0696256 L30.0421797,13.0696256 C29.9723362,13.0696256 29.9128066,13.11567 29.9019321,13.1782822 L29.8660574,13.3851262 L29.8089942,13.3102151 C29.6323113,13.0776554 29.2385865,13 28.8454223,13 C27.9441826,13 27.1742219,13.6192106 27.0244451,14.4876503 C26.9464176,14.9209554 27.0571807,15.3349483 27.3281468,15.62392 C27.5770275,15.8895138 27.9322991,16 28.3555084,16 C29.081971,16 29.4848887,15.5768592 29.4848887,15.5768592 L29.4484535,15.7824835 C29.4348884,15.8606471 29.5014808,15.9313908 29.5888132,15.9313908 L30.3234598,15.9313908 C30.4399404,15.9313908 30.5390443,15.8545485 30.5572058,15.7502626 L30.9982404,13.2184313 C31.0118055,13.1402677 30.9452131,13.0696256 30.8579928,13.0696256 L30.8579928,13.0696256 Z" id="Fill-16" fill="#21316F"></path>
            <path d="M42.7210109,14.5091987 C42.6423121,14.9317296 42.2722485,15.2155175 41.80028,15.2155175 C41.5636231,15.2155175 41.3742752,15.1465018 41.2525275,15.0157886 C41.1317888,14.8862951 41.0863857,14.7018126 41.1247261,14.49629 C41.1981559,14.0775199 41.574049,13.7846858 42.0388427,13.7846858 C42.2705669,13.7846858 42.4586816,13.8543114 42.5827835,13.9861426 C42.7076702,14.1189903 42.756885,14.3046925 42.7210109,14.5091987 Z M43.8578831,13.0696256 L43.0421961,13.0696256 C42.9722416,13.0696256 42.912713,13.11567 42.9019508,13.1782822 L42.8659646,13.3851262 L42.8090145,13.3102151 C42.6323346,13.0776554 42.2386165,13 41.8454589,13 C40.9442346,13 40.174287,13.6192106 40.0244006,14.4876503 C39.9464865,14.9209554 40.0571357,15.3349483 40.3280971,15.62392 C40.5770857,15.8895138 40.9323513,16 41.3555534,16 C42.0820037,16 42.4849145,15.5768592 42.4849145,15.5768592 L42.4484799,15.7824835 C42.4348029,15.8606471 42.5015063,15.9313908 42.5887252,15.9313908 L43.3233592,15.9313908 C43.4398379,15.9313908 43.5390522,15.8545485 43.5572134,15.7502626 L43.9982405,13.2184313 C44.0118054,13.1402677 43.9452141,13.0696256 43.8578831,13.0696256 L43.8578831,13.0696256 Z" id="Fill-17" fill="#0093C7"></path>
            <path d="M34.8557248,13 L34.0239832,13 C33.9443798,13 33.8700075,13.0365254 33.8253159,13.0974711 L32.6780036,14.6615352 L32.1917406,13.1585221 C32.1613776,13.0645246 32.0677868,13 31.9616869,13 L31.1441601,13 C31.0454519,13 30.9759695,13.0898924 31.0078109,13.1764164 L31.923591,15.6645615 L31.0621686,16.7895845 C30.9946194,16.877898 31.0628509,17 31.1797542,17 L32.0106998,17 C32.0893934,17 32.1631971,16.9643167 32.2080025,16.9044236 L34.9741064,13.2093629 C35.040291,13.1209442 34.9719458,13 34.8557248,13" id="Fill-18" fill="#21316F"></path>
            <path d="M44.7919511,11.1266258 L44.001988,15.8265855 C43.9866624,15.9176755 44.061897,16 44.1604366,16 L44.9549594,16 C45.0865566,16 45.1986485,15.9104499 45.219167,15.7889176 L45.9979843,11.1734145 C46.0134365,11.0823245 45.9380753,11 45.8395357,11 L44.9503997,11 C44.871492,11 44.8042369,11.053659 44.7919511,11.1266258" id="Fill-19" fill="#0093C7"></path>
        </g>
    </g>
</svg>