<?xml version="1.0" encoding="UTF-8"?>
<svg width="59px" height="37px" viewBox="0 0 59 37" version="1.1" xmlns="http://www.w3.org/2000/svg" xmlns:xlink="http://www.w3.org/1999/xlink">
    <!-- Generator: Sketch 58 (84663) - https://sketch.com -->
    <title>paypal</title>
    <desc>Created with Sketch.</desc>
    <g id="Page-1" stroke="none" stroke-width="1" fill="none" fill-rule="evenodd">
        <g id="paypal">
            <rect id="Rectangle" stroke="#F5F5F5" fill-rule="nonzero" x="0" y="0" width="59" height="37" rx="3.5"></rect>
            <path d="M36.0392,15.7502 C35.8799,16.7961 35.0812,16.7961 34.3084,16.7961 L33.8689,16.7961 L34.1773,14.8433 C34.1957,14.7253 34.2975,14.6386 34.417,14.6386 L34.6187,14.6386 C35.1447,14.6386 35.6414,14.6386 35.8976,14.938 C36.0509,15.1172 36.0971,15.3832 36.0392,15.7502 Z M35.7026,13.0212 L32.7888,13.0212 C32.5893,13.0212 32.4199,13.1663 32.3887,13.3631 L31.2105,20.8347 C31.1873,20.982 31.3015,21.1154 31.4502,21.1154 L32.9455,21.1154 C33.0848,21.1154 33.2035,21.0139 33.2253,20.8764 L33.5597,18.7579 C33.5905,18.5611 33.7603,18.4161 33.9594,18.4161 L34.8814,18.4161 C36.8007,18.4161 37.9086,17.4874 38.1979,15.6461 C38.3283,14.8414 38.2032,14.2088 37.8263,13.7658 C37.412,13.279 36.6775,13.0212 35.7026,13.0212 Z" id="Shape" fill="#0079C1"></path>
            <path d="M15.2565,15.7502 C15.0972,16.7961 14.2985,16.7961 13.5257,16.7961 L13.0862,16.7961 L13.3946,14.8433 C13.413,14.7253 13.5148,14.6386 13.6343,14.6386 L13.836,14.6386 C14.362,14.6386 14.8587,14.6386 15.1149,14.938 C15.2682,15.1172 15.3144,15.3832 15.2565,15.7502 Z M14.9199,13.0212 L12.0061,13.0212 C11.8066,13.0212 11.6372,13.1663 11.606,13.3631 L10.4278,20.8347 C10.4045,20.982 10.5184,21.1154 10.6675,21.1154 L12.0591,21.1154 C12.2582,21.1154 12.4276,20.9703 12.4588,20.7739 L12.777,18.7579 C12.8078,18.5611 12.9776,18.4161 13.1767,18.4161 L14.0986,18.4161 C16.018,18.4161 17.1259,17.4874 17.4152,15.6461 C17.5455,14.8414 17.4204,14.2088 17.0436,13.7658 C16.6293,13.279 15.8948,13.0212 14.9199,13.0212 Z" id="Shape" fill="#00457C"></path>
            <path d="M21.6844,18.4327 C21.5495,19.2298 20.9169,19.7652 20.1095,19.7652 C19.7049,19.7652 19.3807,19.6348 19.1726,19.3884 C18.9663,19.1442 18.8885,18.7959 18.9539,18.4086 C19.0794,17.6182 19.7226,17.0659 20.5175,17.0659 C20.9139,17.0659 21.2354,17.1974 21.4477,17.4461 C21.6615,17.6967 21.7456,18.0468 21.6844,18.4327 Z M23.629,15.7168 L22.2337,15.7168 C22.1142,15.7168 22.0124,15.8036 21.9936,15.9219 L21.9324,16.3119 L21.8351,16.1706 C21.5327,15.7322 20.8591,15.5853 20.1866,15.5853 C18.6452,15.5853 17.3284,16.7537 17.0722,18.3921 C16.9388,19.2095 17.1281,19.9906 17.5917,20.5357 C18.0174,21.0365 18.6249,21.245 19.3488,21.245 C20.5916,21.245 21.2806,20.447 21.2806,20.447 L21.2182,20.8347 C21.1949,20.982 21.3088,21.1154 21.4583,21.1154 L22.7146,21.1154 C22.9141,21.1154 23.0835,20.9707 23.1147,20.7739 L23.869,15.9974 C23.8923,15.8502 23.7781,15.7168 23.629,15.7168 Z" id="Shape" fill="#00457C"></path>
            <path d="M42.4671,18.4327 C42.3323,19.2298 41.6996,19.7652 40.8923,19.7652 C40.4877,19.7652 40.1634,19.6348 39.9553,19.3884 C39.7487,19.1442 39.6713,18.7959 39.7367,18.4086 C39.8621,17.6182 40.5053,17.0659 41.3003,17.0659 C41.6966,17.0659 42.0182,17.1974 42.2304,17.4461 C42.4442,17.6967 42.5284,18.0468 42.4671,18.4327 Z M44.4117,15.7168 L43.0164,15.7168 C42.8969,15.7168 42.7951,15.8036 42.7763,15.9219 L42.7151,16.3119 L42.6174,16.1706 C42.3154,15.7322 41.6418,15.5853 40.9693,15.5853 C39.4279,15.5853 38.1111,16.7537 37.8549,18.3921 C37.7215,19.2095 37.9109,19.9906 38.3745,20.5357 C38.8001,21.0365 39.4076,21.245 40.1315,21.245 C41.3743,21.245 42.0633,20.447 42.0633,20.447 L42.0009,20.8347 C41.9776,20.982 42.0915,21.1154 42.241,21.1154 L43.4973,21.1154 C43.6968,21.1154 43.8662,20.9707 43.8974,20.7739 L44.6518,15.9974 C44.675,15.8502 44.5608,15.7168 44.4117,15.7168 Z" id="Shape" fill="#0079C1"></path>
            <path d="M31.0603,15.7168 L29.6579,15.7168 C29.5238,15.7168 29.3983,15.7833 29.3232,15.8945 L27.3884,18.7437 L26.5686,16.0057 C26.5172,15.8344 26.3594,15.7168 26.1806,15.7168 L24.8022,15.7168 C24.6358,15.7168 24.5185,15.8806 24.5723,16.038 L26.1163,20.571 L24.6639,22.6203 C24.5501,22.7811 24.6651,23.0035 24.8623,23.0035 L26.2632,23.0035 C26.3958,23.0035 26.5202,22.9385 26.5961,22.8296 L31.2598,16.0981 C31.3714,15.9369 31.2564,15.7168 31.0603,15.7168 Z" id="Path" fill="#00457C"></path>
            <path d="M46.0565,13.2266 L44.8607,20.835 C44.8374,20.9822 44.9512,21.1156 45.1004,21.1156 L46.3033,21.1156 C46.5024,21.1156 46.6723,20.9706 46.7031,20.7737 L47.8823,13.3021 C47.9056,13.1549 47.7918,13.0215 47.6423,13.0215 L46.2966,13.0215 C46.1767,13.0215 46.0749,13.1083 46.0565,13.2266 Z" id="Path" fill="#0079C1"></path>
            <path d="M36.0392,15.7502 C35.8799,16.7961 35.0812,16.7961 34.3084,16.7961 L33.8689,16.7961 L34.1773,14.8433 C34.1957,14.7253 34.2975,14.6386 34.417,14.6386 L34.6187,14.6386 C35.1447,14.6386 35.6414,14.6386 35.8976,14.938 C36.0509,15.1172 36.0971,15.3832 36.0392,15.7502 Z M35.7026,13.0212 L32.7888,13.0212 C32.5893,13.0212 32.4199,13.1663 32.3887,13.3631 L31.2105,20.8347 C31.1873,20.982 31.3015,21.1154 31.4502,21.1154 L32.9455,21.1154 C33.0848,21.1154 33.2035,21.0139 33.2253,20.8764 L33.5597,18.7579 C33.5905,18.5611 33.7603,18.4161 33.9594,18.4161 L34.8814,18.4161 C36.8007,18.4161 37.9086,17.4874 38.1979,15.6461 C38.3283,14.8414 38.2032,14.2088 37.8263,13.7658 C37.412,13.279 36.6775,13.0212 35.7026,13.0212 Z" id="Shape" fill="#0079C1"></path>
            <path d="M15.2565,15.7502 C15.0972,16.7961 14.2985,16.7961 13.5257,16.7961 L13.0862,16.7961 L13.3946,14.8433 C13.413,14.7253 13.5148,14.6386 13.6343,14.6386 L13.836,14.6386 C14.362,14.6386 14.8587,14.6386 15.1149,14.938 C15.2682,15.1172 15.3144,15.3832 15.2565,15.7502 Z M14.9199,13.0212 L12.0061,13.0212 C11.8066,13.0212 11.6372,13.1663 11.606,13.3631 L10.4278,20.8347 C10.4045,20.982 10.5184,21.1154 10.6675,21.1154 L12.0591,21.1154 C12.2582,21.1154 12.4276,20.9703 12.4588,20.7739 L12.777,18.7579 C12.8078,18.5611 12.9776,18.4161 13.1767,18.4161 L14.0986,18.4161 C16.018,18.4161 17.1259,17.4874 17.4152,15.6461 C17.5455,14.8414 17.4204,14.2088 17.0436,13.7658 C16.6293,13.279 15.8948,13.0212 14.9199,13.0212 Z" id="Shape" fill="#00457C"></path>
            <path d="M21.6844,18.4327 C21.5495,19.2298 20.9169,19.7652 20.1095,19.7652 C19.7049,19.7652 19.3807,19.6348 19.1726,19.3884 C18.9663,19.1442 18.8885,18.7959 18.9539,18.4086 C19.0794,17.6182 19.7226,17.0659 20.5175,17.0659 C20.9139,17.0659 21.2354,17.1974 21.4477,17.4461 C21.6615,17.6967 21.7456,18.0468 21.6844,18.4327 Z M23.629,15.7168 L22.2337,15.7168 C22.1142,15.7168 22.0124,15.8036 21.9936,15.9219 L21.9324,16.3119 L21.8351,16.1706 C21.5327,15.7322 20.8591,15.5853 20.1866,15.5853 C18.6452,15.5853 17.3284,16.7537 17.0722,18.3921 C16.9388,19.2095 17.1281,19.9906 17.5917,20.5357 C18.0174,21.0365 18.6249,21.245 19.3488,21.245 C20.5916,21.245 21.2806,20.447 21.2806,20.447 L21.2182,20.8347 C21.1949,20.982 21.3088,21.1154 21.4583,21.1154 L22.7146,21.1154 C22.9141,21.1154 23.0835,20.9707 23.1147,20.7739 L23.869,15.9974 C23.8923,15.8502 23.7781,15.7168 23.629,15.7168 Z" id="Shape" fill="#00457C"></path>
            <path d="M42.4671,18.4327 C42.3323,19.2298 41.6996,19.7652 40.8923,19.7652 C40.4877,19.7652 40.1634,19.6348 39.9553,19.3884 C39.7487,19.1442 39.6713,18.7959 39.7367,18.4086 C39.8621,17.6182 40.5053,17.0659 41.3003,17.0659 C41.6966,17.0659 42.0182,17.1974 42.2304,17.4461 C42.4442,17.6967 42.5284,18.0468 42.4671,18.4327 Z M44.4117,15.7168 L43.0164,15.7168 C42.8969,15.7168 42.7951,15.8036 42.7763,15.9219 L42.7151,16.3119 L42.6174,16.1706 C42.3154,15.7322 41.6418,15.5853 40.9693,15.5853 C39.4279,15.5853 38.1111,16.7537 37.8549,18.3921 C37.7215,19.2095 37.9109,19.9906 38.3745,20.5357 C38.8001,21.0365 39.4076,21.245 40.1315,21.245 C41.3743,21.245 42.0633,20.447 42.0633,20.447 L42.0009,20.8347 C41.9776,20.982 42.0915,21.1154 42.241,21.1154 L43.4973,21.1154 C43.6968,21.1154 43.8662,20.9707 43.8974,20.7739 L44.6518,15.9974 C44.675,15.8502 44.5608,15.7168 44.4117,15.7168 Z" id="Shape" fill="#0079C1"></path>
            <path d="M31.0603,15.7168 L29.6579,15.7168 C29.5238,15.7168 29.3983,15.7833 29.3232,15.8945 L27.3884,18.7437 L26.5686,16.0057 C26.5172,15.8344 26.3594,15.7168 26.1806,15.7168 L24.8022,15.7168 C24.6358,15.7168 24.5185,15.8806 24.5723,16.038 L26.1163,20.571 L24.6639,22.6203 C24.5501,22.7811 24.6651,23.0035 24.8623,23.0035 L26.2632,23.0035 C26.3958,23.0035 26.5202,22.9385 26.5961,22.8296 L31.2598,16.0981 C31.3714,15.9369 31.2564,15.7168 31.0603,15.7168 Z" id="Path" fill="#00457C"></path>
            <path d="M46.0565,13.2266 L44.8607,20.835 C44.8374,20.9822 44.9512,21.1156 45.1004,21.1156 L46.3033,21.1156 C46.5024,21.1156 46.6723,20.9706 46.7031,20.7737 L47.8823,13.3021 C47.9056,13.1549 47.7918,13.0215 47.6423,13.0215 L46.2966,13.0215 C46.1767,13.0215 46.0749,13.1083 46.0565,13.2266 Z" id="Path" fill="#0079C1"></path>
        </g>
    </g>
</svg>