<?xml version="1.0" encoding="UTF-8"?>
<svg width="59px" height="37px" viewBox="0 0 59 37" version="1.1" xmlns="http://www.w3.org/2000/svg" xmlns:xlink="http://www.w3.org/1999/xlink">
    <!-- Generator: Sketch 58 (84663) - https://sketch.com -->
    <title>visa</title>
    <desc>Created with Sketch.</desc>
    <g id="Page-1" stroke="none" stroke-width="1" fill="none" fill-rule="evenodd">
        <g id="visa">
            <rect id="Rectangle" stroke="#F5F5F5" fill-rule="nonzero" x="0" y="0" width="59" height="37" rx="3.5"></rect>
            <g id="Group">
                <polygon id="Path" fill="#26337A" points="23.1339 24.589 25.068 12.591 28.1595 12.591 26.2256 24.589"></polygon>
                <path d="M37.4394,12.8855 C36.8282,12.6447 35.8668,12.3821 34.6692,12.3821 C31.6126,12.3821 29.4611,14.0103 29.4432,16.3418 C29.4238,18.0663 30.9786,19.0281 32.1507,19.6013 C33.3554,20.1889 33.7601,20.5649 33.7554,21.0902 C33.747,21.8938 32.7938,22.262 31.9049,22.262 C30.6672,22.262 30.0096,22.0807 28.9928,21.6328 L28.5952,21.4418 L28.1628,24.1274 C28.8837,24.4616 30.2202,24.7517 31.6072,24.7669 C34.8555,24.7669 36.9663,23.1584 36.991,20.6687 C37.0022,19.3012 36.1783,18.2646 34.3942,17.4088 C33.3138,16.8524 32.6508,16.4839 32.6584,15.9208 C32.6591,15.4221 33.2185,14.8883 34.4294,14.8883 C35.4406,14.872 36.1727,15.1055 36.7431,15.3493 L37.0207,15.4865 L37.4394,12.8855 Z" id="Path" fill="#26337A"></path>
                <path d="M41.5558,20.3353 C41.812,19.6457 42.7873,16.9816 42.7873,16.9816 C42.7693,17.0134 43.0421,16.2867 43.1983,15.837 L43.4069,16.8718 C43.4069,16.8718 44.0001,19.7355 44.1223,20.3353 C43.641,20.3353 42.1594,20.3353 41.5558,20.3353 Z M45.3704,12.6033 L42.9812,12.6033 C42.2402,12.6033 41.6855,12.8156 41.3608,13.5979 L36.7697,24.5933 L40.0168,24.5933 C40.0168,24.5933 40.5466,23.1142 40.6668,22.7895 C41.021,22.7895 44.1762,22.7957 44.6265,22.7957 C44.7192,23.2144 45.003,24.5933 45.003,24.5933 L47.8725,24.5933 L45.3704,12.6033 Z" id="Shape" fill="#26337A"></path>
                <path d="M17.514,20.7808 L17.1898,19.1181 C16.626,17.2023 14.8707,15.1258 12.9072,14.0854 L15.6755,24.5785 L18.9474,24.5766 L23.816,12.6011 L20.5399,12.6011 L17.514,20.7808 Z" id="Path" fill="#26337A"></path>
                <path d="M14.7052,12.5929 L9.71973,12.5929 L9.67871,12.8415 C13.558,13.8354 16.1247,16.2343 17.1901,19.1181 L16.1067,13.6052 C15.9198,12.8449 15.3766,12.6195 14.7052,12.5929 Z" id="Path" fill="#EC982D"></path>
            </g>
        </g>
    </g>
</svg>